<mxfile host="app.diagrams.net" modified="2024-05-07T12:54:48.123Z" agent="Mozilla/5.0 (Windows NT 10.0; Win64; x64) AppleWebKit/537.36 (KHTML, like Gecko) Chrome/124.0.0.0 Safari/537.36" version="24.1.0" etag="UnWTUBzZN2xtEpEwq8mI" type="github">
  <diagram name="第 1 页" id="KSqLwSC5GE1AOcwC7xX7">
    <mxGraphModel>
      <root>
        <mxCell id="0" />
        <mxCell id="1" parent="0" />
      </root>
    </mxGraphModel>
  </diagram>
</mxfile>
